<svg aria-hidden="true" style="position: absolute; width: 0; height: 0; overflow: hidden;" version="1.1" xmlns="http://www.w3.org/2000/svg" xmlns:xlink="http://www.w3.org/1999/xlink">
<defs>

<symbol id="close-icon" viewBox="0 0 32 32">
<path  d="M2.521 2.001l26.97 28.010M2.001 29.49l28.010-26.97"></path>
</symbol>

<symbol id="phone-icon" viewBox="0 0 32 32">
<path d="M24.886 19.777l-3.268-0.373c-0.090-0.011-0.194-0.018-0.3-0.018-0.707 0-1.347 0.287-1.811 0.75l-2.368 2.368c-3.67-1.894-6.586-4.811-8.429-8.373l-0.051-0.108 2.383-2.377c0.463-0.463 0.75-1.104 0.75-1.811 0-0.106-0.006-0.21-0.019-0.312l0.001 0.012-0.373-3.243c-0.155-1.288-1.241-2.276-2.557-2.276-0.001 0-0.002 0-0.003 0h-2.226c-1.454 0-2.664 1.209-2.575 2.662 0.683 10.988 9.472 19.765 20.448 20.448 1.453 0.089 2.664-1.12 2.664-2.575v-2.226c0-0.004 0-0.008 0-0.012 0-1.308-0.985-2.386-2.253-2.533l-0.012-0.001z"></path>
</symbol>

<symbol id="user-form-icon" viewBox="0 0 32 32">
<path d="M16.003 16.003c2.946 0 5.334-2.388 5.334-5.334s-2.388-5.334-5.334-5.334v0c-2.946 0-5.334 2.388-5.334 5.334s2.388 5.334 5.334 5.334v0zM16.003 18.67c-3.561 0-10.668 1.787-10.668 5.334v1.334c0 0.733 0.599 1.334 1.334 1.334h18.67c0.733 0 1.334-0.601 1.334-1.334v-1.334c0-3.547-7.109-5.334-10.668-5.334z"></path>
</symbol>

<symbol id="email-form" viewBox="0 0 32 32">
<path d="M26.667 5.333h-21.333c-1.467 0-2.652 1.2-2.652 2.667l-0.014 16c0 1.467 1.2 2.667 2.667 2.667h21.333c1.467 0 2.667-1.2 2.667-2.667v-16c0-1.467-1.2-2.667-2.667-2.667zM26.133 11.001l-9.426 5.892c-0.201 0.126-0.446 0.2-0.708 0.2s-0.506-0.075-0.713-0.204l0.006 0.003-9.426-5.892c-0.336-0.201-0.557-0.562-0.557-0.975 0-0.625 0.507-1.132 1.132-1.132 0.233 0 0.449 0.070 0.629 0.19l-0.004-0.003 8.933 5.586 8.933-5.588c0.176-0.118 0.392-0.188 0.624-0.188 0.625 0 1.132 0.507 1.132 1.132 0 0.413-0.221 0.775-0.552 0.972l-0.005 0.003z"></path>
</symbol>

<symbol id="icon-person" viewBox="0 0 32 32">
<path d="M16 16c2.947 0 5.333-2.387 5.333-5.333s-2.387-5.333-5.333-5.333c-2.947 0-5.333 2.387-5.333 5.333s2.387 5.333 5.333 5.333zM16 18.667c-3.56 0-10.667 1.787-10.667 5.333v1.333c0 0.733 0.6 1.333 1.333 1.333h18.667c0.733 0 1.333-0.6 1.333-1.333v-1.333c0-3.547-7.107-5.333-10.667-5.333z"></path>
</symbol>

<symbol id="icon-phone" viewBox="0 0 32 32">
<path d="M24.882 19.773l-3.268-0.373c-0.785-0.090-1.557 0.18-2.11 0.733l-2.367 2.367c-3.641-1.853-6.626-4.825-8.478-8.478l2.38-2.38c0.553-0.553 0.823-1.325 0.733-2.11l-0.373-3.242c-0.154-1.299-1.248-2.277-2.56-2.277h-2.226c-1.454 0-2.663 1.209-2.573 2.663 0.682 10.987 9.469 19.761 20.443 20.443 1.454 0.090 2.663-1.119 2.663-2.573v-2.226c0.013-1.3-0.965-2.393-2.264-2.547z"></path>
</symbol>

<symbol id="icon-check" viewBox="0 0 42 32">
<path d="M6.263 15.205l-0.22-0.21-3.307 3.132 11.651 11.114 24.477-23.351-3.285-3.134-21.192 20.197-8.124-7.75z"></path>
</symbol>
</defs>
</svg>
